<?xml version="1.0" encoding="utf-8"?>
<!-- Generator: Adobe Illustrator 27.7.0, SVG Export Plug-In . SVG Version: 6.00 Build 0)  -->
<svg version="1.1" id="Layer_1" xmlns="http://www.w3.org/2000/svg" xmlns:xlink="http://www.w3.org/1999/xlink" x="0px" y="0px"
	 viewBox="0 0 512 512" style="enable-background:new 0 0 512 512;" xml:space="preserve">
<g>
	<path d="M190.8,361.48L361.47,190.8c11.11-11.11,11.11-29.12,0-40.23c-11.11-11.11-29.12-11.11-40.23,0L150.57,321.25
		c-11.11,11.11-11.11,29.12,0,40.23C161.68,372.59,179.69,372.59,190.8,361.48"/>
	<path d="M249.1,103.95l13.17-15.25l-21.53-18.6l20.11,20.12c22.32-22.3,51.34-33.29,80.67-33.32c29.1,0.03,57.99,11.08,80.25,33.33
		c22.3,22.32,33.29,51.34,33.32,80.67c-0.03,29.1-11.08,57.99-33.33,80.26l20.11,20.12l-18.66-21.47L408.04,263
		c-11.86,10.3-13.12,28.27-2.81,40.13c10.3,11.86,28.27,13.12,40.13,2.81l15.19-13.2l1.46-1.36c33.2-33.17,50.03-76.92,50-120.49
		c0.03-43.61-16.63-87.56-49.98-120.9C428.84,16.81,385.1-0.03,341.53,0c-43.61-0.03-87.56,16.63-120.9,49.98l-1.41,1.52
		l-13.17,15.25c-10.27,11.89-8.96,29.85,2.93,40.12C220.87,117.15,238.83,115.83,249.1,103.95L249.1,103.95z"/>
	<path d="M261.64,409.73l-11.29,15.19l22.83,16.97l-20-20.23c-22.61,22.34-51.86,33.41-81.37,33.44
		c-29.5-0.03-58.75-11.09-81.37-33.44l0,0c-22.4-22.17-33.51-51.12-33.55-80.35c0.03-28.8,10.81-57.34,32.64-79.44l-0.11,0.11
		l0.51-0.51l14.25-12.59c11.77-10.4,12.88-28.38,2.48-40.15c-10.4-11.77-28.38-12.88-40.15-2.48L51.6,219.43l-1.28,1.2l-1.13,1.13
		l-0.11,0.11C16.39,254.92-0.03,298.26,0,341.32c-0.03,43.7,16.89,87.65,50.44,120.8l0,0c33.55,33.2,77.59,49.91,121.37,49.88
		c43.78,0.03,87.82-16.68,121.37-49.88l2.83-3.25l11.29-15.19c9.37-12.61,6.75-30.43-5.86-39.8
		C288.83,394.5,271.01,397.12,261.64,409.73L261.64,409.73z"/>
</g>
</svg>
